<?xml version="1.0" encoding="UTF-8"?><svg id="Layer_1" xmlns="http://www.w3.org/2000/svg" viewBox="0 0 125 125"><defs><style>.cls-1{fill:#1bb050;stroke-width:0px;}</style></defs><path class="cls-1" d="M71.4,73.05h-20.36c-1.95,0-3.54-1.59-3.54-3.54v-11.46c0-1.95,1.59-3.54,3.54-3.54h17.84c.52,0,.95.42.95.95s-.42.95-.95.95h-17.84c-.91,0-1.65.74-1.65,1.65v11.46c0,.91.74,1.65,1.65,1.65h20.36c.91,0,1.65-.74,1.65-1.65v-8.94c0-.52.42-.95.95-.95s.95.42.95.95v8.94c0,1.95-1.59,3.54-3.54,3.54Z"/><path class="cls-1" d="M56.88,69.57c-1.31,0-2.55-.43-3.58-1.24-1.41-1.1-2.22-2.76-2.22-4.55,0-3.19,2.6-5.79,5.79-5.79s5.79,2.6,5.79,5.79c0,1.79-.81,3.45-2.22,4.56-1.03.81-2.26,1.24-3.57,1.24ZM56.88,59.39c-2.42,0-4.4,1.97-4.4,4.4,0,1.36.61,2.62,1.68,3.45.78.62,1.72.94,2.71.94s1.93-.33,2.71-.94c1.07-.84,1.69-2.1,1.69-3.46,0-2.42-1.97-4.4-4.4-4.4Z"/><path class="cls-1" d="M58.17,64.9c-.19,0-.38-.08-.52-.23-.26-.29-.24-.73.04-.99.25-.23.39-.55.39-.89,0-.67-.54-1.21-1.21-1.21s-1.21.54-1.21,1.21c0,.34.14.66.39.89.28.26.3.7.04.99-.26.28-.7.3-.99.04-.54-.49-.85-1.2-.85-1.93,0-1.44,1.17-2.61,2.61-2.61s2.61,1.17,2.61,2.61c0,.73-.31,1.43-.85,1.93-.13.12-.3.18-.47.18Z"/><path class="cls-1" d="M56.88,69.57c-1.31,0-2.55-.43-3.58-1.24-.17-.13-.27-.33-.27-.55v-.72c0-1.51.89-2.88,2.27-3.5.25-.12.55-.07.76.12.22.2.51.32.82.32.39,0,.66-.17.82-.32.2-.18.51-.23.76-.12,1.37.62,2.26,1.99,2.26,3.5v.72c0,.21-.1.42-.27.55-1.03.81-2.27,1.24-3.58,1.24ZM54.44,67.43c.72.49,1.56.74,2.44.74s1.72-.26,2.44-.74v-.36c0-.83-.42-1.59-1.1-2.04-.81.49-1.89.49-2.69,0-.68.45-1.1,1.21-1.1,2.04v.36ZM60.02,67.79h0,0Z"/><path class="cls-1" d="M70.69,61.56h-5.88c-.37,0-.67-.3-.67-.67s.3-.67.67-.67h5.88c.37,0,.67.3.67.67s-.3.67-.67.67Z"/><path class="cls-1" d="M70.69,64.45h-5.88c-.37,0-.67-.3-.67-.67s.3-.67.67-.67h5.88c.37,0,.67.3.67.67s-.3.67-.67.67Z"/><path class="cls-1" d="M70.69,67.33h-5.88c-.37,0-.67-.3-.67-.67s.3-.67.67-.67h5.88c.37,0,.67.3.67.67s-.3.67-.67.67Z"/><path class="cls-1" d="M73.99,58.97c-.52,0-.95-.42-.95-.95v-5.13c0-.52.42-.95.95-.95s.95.42.95.95v5.13c0,.52-.42.95-.95.95Z"/><path class="cls-1" d="M76.55,56.41h-5.13c-.52,0-.95-.42-.95-.95s.42-.95.95-.95h5.13c.52,0,.95.42.95.95s-.42.95-.95.95Z"/></svg>