<?xml version="1.0" ?><svg style="enable-background:new 0 0 512 512;" version="1.1" viewBox="0 0 512 512" xml:space="preserve" xmlns="http://www.w3.org/2000/svg" xmlns:xlink="http://www.w3.org/1999/xlink"><style type="text/css">
	.st0{fill-rule:evenodd;clip-rule:evenodd;}
</style><g id="LinkedIn"/><g id="Twitter"/><g id="Youtube_2"/><g id="Tumblr"/><g id="Facebook"/><g id="Instagram"><g><path d="M242.9,491.9c-1.8,0-3.3-1.5-3.3-3.3V483c0-1.8,1.5-3.3,3.3-3.3c1.8,0,3.3,1.5,3.3,3.3v5.6    C246.2,490.4,244.7,491.9,242.9,491.9z"/><g><g><path d="M242.9,185.5c-11.6,0-20.9,9.4-20.9,20.9c0,11.6,9.4,20.9,20.9,20.9c11.6,0,20.9-9.4,20.9-20.9      C263.8,194.9,254.4,185.5,242.9,185.5z M242.9,220c-7.5,0-13.6-6.1-13.6-13.6s6.1-13.6,13.6-13.6c7.5,0,13.6,6.1,13.6,13.6      S250.4,220,242.9,220z"/><path d="M269.5,184.7c0,2.7-2.2,4.9-4.9,4.9s-4.9-2.2-4.9-4.9s2.2-4.9,4.9-4.9S269.5,182,269.5,184.7z"/><path d="M283.4,189.6c-0.2-4.4-0.9-7.3-1.9-9.9c-1-2.7-2.4-5-4.7-7.2c-2.3-2.3-4.5-3.7-7.2-4.7c-2.6-1-5.6-1.7-9.9-1.9      c-4.3-0.2-5.7-0.3-16.8-0.3c-11.1,0-12.5,0-16.8,0.3c-4.3,0.2-7.3,0.9-9.9,1.9c-2.7,1-4.9,2.4-7.2,4.7c-2.3,2.3-3.7,4.5-4.7,7.2      c-1,2.6-1.7,5.5-1.9,9.9c-0.2,4.3-0.2,5.7-0.2,16.8c0,11.1,0,12.5,0.2,16.8c0.2,4.3,0.9,7.3,1.9,9.9c1,2.7,2.4,5,4.7,7.2      c2.3,2.3,4.5,3.7,7.2,4.7c2.6,1,5.6,1.7,9.9,1.9c4.3,0.2,5.7,0.3,16.8,0.3c11.1,0,12.5,0,16.8-0.3c4.3-0.2,7.3-0.9,9.9-1.9      c2.7-1,4.9-2.4,7.2-4.7c2.3-2.3,3.7-4.5,4.7-7.2c1-2.6,1.7-5.6,1.9-9.9c0.2-4.4,0.2-5.7,0.2-16.8      C283.7,195.4,283.6,194,283.4,189.6z M276.1,222.9c-0.2,4-0.9,6.1-1.4,7.6c-0.7,1.9-1.6,3.3-3,4.7s-2.8,2.3-4.7,3      c-1.4,0.6-3.6,1.2-7.6,1.4c-4.3,0.2-5.6,0.2-16.5,0.2s-12.2,0-16.5-0.2c-4-0.2-6.1-0.8-7.6-1.4c-1.9-0.7-3.3-1.6-4.7-3      c-1.4-1.4-2.3-2.8-3-4.7c-0.5-1.4-1.2-3.6-1.4-7.6c-0.2-4.3-0.2-5.6-0.2-16.5c0-10.9,0-12.2,0.2-16.5c0.2-4,0.9-6.1,1.4-7.6      c0.7-1.9,1.6-3.3,3-4.7c1.4-1.4,2.8-2.3,4.7-3.1c1.4-0.6,3.6-1.2,7.6-1.4c4.3-0.2,5.6-0.2,16.5-0.2s12.2,0,16.5,0.2      c4,0.2,6.1,0.8,7.6,1.4c1.9,0.7,3.3,1.6,4.7,3.1c1.4,1.4,2.3,2.8,3,4.7c0.6,1.4,1.2,3.6,1.4,7.6c0.2,4.3,0.2,5.6,0.2,16.5      C276.3,217.3,276.3,218.6,276.1,222.9z"/><path d="M242.9,127.2c-43.8,0-79.2,35.5-79.2,79.2s35.5,79.2,79.2,79.2s79.2-35.5,79.2-79.2S286.6,127.2,242.9,127.2z       M242.9,282.3c-41.9,0-75.9-34-75.9-75.9c0-41.9,34-75.9,75.9-75.9c41.8,0,75.9,34,75.9,75.9      C318.8,248.3,284.7,282.3,242.9,282.3z"/><path d="M242.9,123.9c-45.5,0-82.5,37-82.5,82.5c0,45.5,37,82.5,82.5,82.5c45.5,0,82.5-37,82.5-82.5      C325.4,160.9,288.4,123.9,242.9,123.9z M242.9,282.3c-41.9,0-75.9-34-75.9-75.9c0-41.9,34-75.9,75.9-75.9      c41.8,0,75.9,34,75.9,75.9C318.8,248.3,284.7,282.3,242.9,282.3z"/></g><g><path d="M283.4,189.6c-0.2-4.4-0.9-7.3-1.9-9.9c-1-2.7-2.4-5-4.7-7.2c-2.3-2.3-4.5-3.7-7.2-4.7c-2.6-1-5.6-1.7-9.9-1.9      c-4.3-0.2-5.7-0.3-16.8-0.3c-11.1,0-12.5,0-16.8,0.3c-4.3,0.2-7.3,0.9-9.9,1.9c-2.7,1-4.9,2.4-7.2,4.7c-2.3,2.3-3.7,4.5-4.7,7.2      c-1,2.6-1.7,5.5-1.9,9.9c-0.2,4.3-0.2,5.7-0.2,16.8c0,11.1,0,12.5,0.2,16.8c0.2,4.3,0.9,7.3,1.9,9.9c1,2.7,2.4,5,4.7,7.2      c2.3,2.3,4.5,3.7,7.2,4.7c2.6,1,5.6,1.7,9.9,1.9c4.3,0.2,5.7,0.3,16.8,0.3c11.1,0,12.5,0,16.8-0.3c4.3-0.2,7.3-0.9,9.9-1.9      c2.7-1,4.9-2.4,7.2-4.7c2.3-2.3,3.7-4.5,4.7-7.2c1-2.6,1.7-5.6,1.9-9.9c0.2-4.4,0.2-5.7,0.2-16.8      C283.7,195.4,283.6,194,283.4,189.6z M276.1,222.9c-0.2,4-0.9,6.1-1.4,7.6c-0.7,1.9-1.6,3.3-3,4.7s-2.8,2.3-4.7,3      c-1.4,0.6-3.6,1.2-7.6,1.4c-4.3,0.2-5.6,0.2-16.5,0.2s-12.2,0-16.5-0.2c-4-0.2-6.1-0.8-7.6-1.4c-1.9-0.7-3.3-1.6-4.7-3      c-1.4-1.4-2.3-2.8-3-4.7c-0.5-1.4-1.2-3.6-1.4-7.6c-0.2-4.3-0.2-5.6-0.2-16.5c0-10.9,0-12.2,0.2-16.5c0.2-4,0.9-6.1,1.4-7.6      c0.7-1.9,1.6-3.3,3-4.7c1.4-1.4,2.8-2.3,4.7-3.1c1.4-0.6,3.6-1.2,7.6-1.4c4.3-0.2,5.6-0.2,16.5-0.2s12.2,0,16.5,0.2      c4,0.2,6.1,0.8,7.6,1.4c1.9,0.7,3.3,1.6,4.7,3.1c1.4,1.4,2.3,2.8,3,4.7c0.6,1.4,1.2,3.6,1.4,7.6c0.2,4.3,0.2,5.6,0.2,16.5      C276.3,217.3,276.3,218.6,276.1,222.9z"/><path d="M242.9,185.5c-11.6,0-20.9,9.4-20.9,20.9c0,11.6,9.4,20.9,20.9,20.9c11.6,0,20.9-9.4,20.9-20.9      C263.8,194.9,254.4,185.5,242.9,185.5z M242.9,220c-7.5,0-13.6-6.1-13.6-13.6s6.1-13.6,13.6-13.6c7.5,0,13.6,6.1,13.6,13.6      S250.4,220,242.9,220z"/><path d="M269.5,184.7c0,2.7-2.2,4.9-4.9,4.9s-4.9-2.2-4.9-4.9s2.2-4.9,4.9-4.9S269.5,182,269.5,184.7z"/></g><path d="M242.9,466.4c-1.8,0-3.3-1.5-3.3-3.3v-20.3c0-1.8,1.5-3.3,3.3-3.3c1.8,0,3.3,1.5,3.3,3.3v20.3     C246.2,465,244.7,466.4,242.9,466.4z"/><path d="M242.9,419.8c-1.8,0-3.3-1.5-3.3-3.3V346c0-1.8,1.5-3.3,3.3-3.3c1.8,0,3.3,1.5,3.3,3.3v70.4     C246.2,418.3,244.7,419.8,242.9,419.8z"/><path d="M242.9,332.5c-1.8,0-3.3-1.5-3.3-3.3v-8.8c0-1.8,1.5-3.3,3.3-3.3c1.8,0,3.3,1.5,3.3,3.3v8.8     C246.2,331,244.7,332.5,242.9,332.5z"/><path d="M283.3,426.7c-1.8,0-3.3-1.5-3.3-3.3V403c0-1.8,1.5-3.3,3.3-3.3c1.8,0,3.3,1.5,3.3,3.3v20.3     C286.6,425.2,285.1,426.7,283.3,426.7z"/><path d="M283.3,380c-1.8,0-3.3-1.5-3.3-3.3v-43.9c0-1.8,1.5-3.3,3.3-3.3c1.8,0,3.3,1.5,3.3,3.3v43.9     C286.6,378.5,285.1,380,283.3,380z"/><path d="M283.3,319.2c-1.8,0-3.3-1.5-3.3-3.3V307c0-1.8,1.5-3.3,3.3-3.3c1.8,0,3.3,1.5,3.3,3.3v8.8     C286.6,317.7,285.1,319.2,283.3,319.2z"/><path d="M283.3,448.4c-1.8,0-3.3-1.5-3.3-3.3v-1.9c0-1.8,1.5-3.3,3.3-3.3c1.8,0,3.3,1.5,3.3,3.3v1.9     C286.6,446.9,285.1,448.4,283.3,448.4z"/><path d="M202.5,380.8c-1.8,0-3.3-1.5-3.3-3.3V307c0-1.8,1.5-3.3,3.3-3.3s3.3,1.5,3.3,3.3v70.4     C205.8,379.3,204.3,380.8,202.5,380.8z"/><path d="M202.5,406.5c-1.8,0-3.3-1.5-3.3-3.3v-8.8c0-1.8,1.5-3.3,3.3-3.3s3.3,1.5,3.3,3.3v8.8C205.8,405,204.3,406.5,202.5,406.5     z"/><g><circle cx="227.9" cy="32.4" r="12.3"/><circle cx="396.3" cy="229.2" r="12.3"/><circle cx="115.7" cy="229.2" r="12.3"/><path d="M363.7,86.4c-1.8,0-3.3-1.5-3.3-3.3v-8.9c0-1.8,1.5-3.3,3.3-3.3c1.8,0,3.3,1.5,3.3,3.3v8.9      C367.1,85,365.6,86.4,363.7,86.4z"/><path d="M377.8,92.2c-0.9,0-1.7-0.3-2.3-1c-1.3-1.3-1.3-3.4,0-4.7l6.3-6.3c1.3-1.3,3.4-1.3,4.7,0s1.3,3.4,0,4.7l-6.3,6.3      C379.5,91.9,378.6,92.2,377.8,92.2z"/><path d="M392.5,106.3h-8.7c-1.8,0-3.3-1.5-3.3-3.3c0-1.8,1.5-3.3,3.3-3.3h8.7c1.8,0,3.3,1.5,3.3,3.3      C395.8,104.8,394.3,106.3,392.5,106.3z"/><path d="M384.1,126.6c-0.8,0-1.7-0.3-2.3-1l-6.3-6.3c-1.3-1.3-1.3-3.4,0-4.7c1.3-1.3,3.4-1.3,4.7,0l6.3,6.3      c1.3,1.3,1.3,3.4,0,4.7C385.7,126.2,384.9,126.6,384.1,126.6z"/><path d="M363.7,135c-1.8,0-3.3-1.5-3.3-3.3v-8.7c0-1.8,1.5-3.3,3.3-3.3c1.8,0,3.3,1.5,3.3,3.3v8.7      C367.1,133.5,365.6,135,363.7,135z"/><path d="M343.4,126.6c-0.9,0-1.7-0.3-2.3-1c-1.3-1.3-1.3-3.4,0-4.7l6.3-6.3c1.3-1.3,3.4-1.3,4.7,0c1.3,1.3,1.3,3.4,0,4.7      l-6.3,6.3C345.1,126.2,344.3,126.6,343.4,126.6z"/><path d="M343.8,106.3H335c-1.8,0-3.3-1.5-3.3-3.3c0-1.8,1.5-3.3,3.3-3.3h8.7c1.8,0,3.3,1.5,3.3,3.3      C347.1,104.8,345.6,106.3,343.8,106.3z"/><path d="M349.7,92.2c-0.9,0-1.7-0.3-2.3-1l-6.3-6.3c-1.3-1.3-1.3-3.4,0-4.7c1.3-1.3,3.4-1.3,4.7,0l6.3,6.3      c1.3,1.3,1.3,3.4,0,4.7C351.4,91.9,350.6,92.2,349.7,92.2z"/><path d="M147.2,103.1c-1.8,0-3.3-1.5-3.3-3.3v-8.2c0-1.8,1.5-3.3,3.3-3.3c1.8,0,3.3,1.5,3.3,3.3v8.2      C150.5,101.6,149,103.1,147.2,103.1z"/><path d="M147.2,139.8c-1.8,0-3.3-1.5-3.3-3.3v-8.2c0-1.8,1.5-3.3,3.3-3.3c1.8,0,3.3,1.5,3.3,3.3v8.2      C150.5,138.3,149,139.8,147.2,139.8z"/><path d="M169.7,117.3h-8.2c-1.8,0-3.3-1.5-3.3-3.3c0-1.8,1.5-3.3,3.3-3.3h8.2c1.8,0,3.3,1.5,3.3,3.3      C173,115.8,171.5,117.3,169.7,117.3z"/><path d="M133,117.3h-8.2c-1.8,0-3.3-1.5-3.3-3.3c0-1.8,1.5-3.3,3.3-3.3h8.2c1.8,0,3.3,1.5,3.3,3.3      C136.3,115.8,134.8,117.3,133,117.3z"/></g></g></g></g><g id="Youtube"/><g id="Whatsapp"/><g id="Reddit"/><g id="Snapachat"/><g id="Pinterest"/><g id="Google_x2B_"/><g id="GitHub"/><g id="Dribbble"/><g id="Deviant_Art"/><g id="Behance"/></svg>